<svg width="300" height="300" viewBox="0 0 300 300" fill="none" xmlns="http://www.w3.org/2000/svg">
<g clip-path="url(#clip0_66_3)">
<path d="M7 192.5L-4.5 197" stroke="black"/>
<path d="M7.5 192.5L-2.5 211" stroke="black"/>
<path d="M8 192L-2 232.5" stroke="black"/>
<path d="M45.5 253.5L61.5 316" stroke="black"/>
<path d="M44.5 253.5L38 305" stroke="black"/>
<path d="M45.5 253.5L16 307" stroke="black"/>
<path d="M45 253L-5.5 300.5" stroke="black"/>
<path d="M45.5 253.5L-7.5 272" stroke="black"/>
<path d="M44.5 253.5L-15 249.5" stroke="black"/>
<path d="M45.5 254.5L-9.5 235" stroke="black"/>
<path d="M45.5 254L-7 225.5" stroke="black"/>
<path d="M226.5 23.5L203 -12.5" stroke="black"/>
<path d="M226 24L231 -7" stroke="black"/>
<path d="M226.5 25L250 -4.5" stroke="black"/>
<path d="M225.5 24L282 -5" stroke="black"/>
<path d="M226.5 24.5L311 21" stroke="black"/>
<path d="M226.5 25L314 -2.5" stroke="black"/>
<path d="M225.5 24.5L306 39.5" stroke="black"/>
<path d="M226.5 24.5L310 60.5" stroke="black"/>
<path d="M295.5 119L303 55.5" stroke="black"/>
<path d="M296 118L325 94" stroke="black"/>
<path d="M295 119L304.5 93.5" stroke="black"/>
<path d="M296.5 118L324.5 130" stroke="black"/>
<path d="M226.5 24.5L321 80" stroke="black"/>
</g>
<defs>
<clipPath id="clip0_66_3">
<rect width="300" height="300" fill="white"/>
</clipPath>
</defs>
</svg>
