<svg width="300" height="300" viewBox="0 0 300 300" fill="none" xmlns="http://www.w3.org/2000/svg">
<g clip-path="url(#clip0_2_3)">
<path d="M144.693 2.69063C78.1403 4.80882 21.0892 49.7499 4.58166 113.061C-2.16672 139.243 6.65763 192.611 6.65763 192.611C6.65763 192.611 30.9588 175.284 45.3969 175.889C70.5512 176.939 83.651 199.52 73.1557 224.293C67.4117 237.853 56.1248 248.073 43.584 253.276C62.6133 272.285 86.5166 285.892 112.755 292.65C193.048 313.044 274.796 265.7 295.341 186.904C301.235 164.237 301.541 140.503 296.234 117.666C265.584 139.004 230.04 152.295 202.209 152.381C162.992 152.498 146.887 126.045 163.713 90.2479C174.673 66.9275 198.297 42.3311 226.871 23.6701C214.497 16.3752 201.123 10.8662 187.159 7.31309C173.295 3.79217 158.995 2.23598 144.693 2.69063ZM110.911 36.4465C132.703 40.3307 141.225 63.6147 128.424 93.8291C114.137 127.555 79.9484 152.75 53.4383 152.83C29.3709 152.902 17.4031 132.008 25.3174 104.285C33.8973 74.2277 63.6061 43.3119 93.8024 37.0113C100.421 35.631 106.137 35.5956 110.911 36.4465ZM178.554 181.721C183.952 181.531 191.763 181.758 199.787 183.628C230.609 190.802 242.138 216.556 223.204 243.643C203.672 271.589 160.993 286.42 129.378 279.795C100.786 273.801 87.9523 251.426 99.132 227.644C110.529 203.395 144.195 182.923 178.554 181.721Z" fill="white"/>
<path d="M108.5 8.5L17 81.5" stroke="black"/>
<path d="M5.5 109.5L32.5 87.5" stroke="black"/>
<path d="M2 136.5L23 122" stroke="black"/>
<path d="M4.5 172L25 134" stroke="black"/>
<path d="M6.5 192.5L34.5 147.5" stroke="black"/>
<path d="M95.5 36.5L156.5 2.5" stroke="black"/>
<path d="M128 46.5L227 23.5" stroke="black"/>
<path d="M227 23.5L134 71.5" stroke="black"/>
<path d="M167.5 83.5L110.5 122" stroke="black"/>
<path d="M158 125.5L46 176" stroke="black"/>
<path d="M167 141L73 191.5" stroke="black"/>
<path d="M194 152L76.5 213" stroke="black"/>
<path d="M44 253.5L110.5 211.5" stroke="black"/>
<path d="M45 254L102 265" stroke="black"/>
<path d="M81 280L192 291.5" stroke="black"/>
<path d="M185.5 273L268.5 240.5" stroke="black"/>
<path d="M179 182L256 140" stroke="black"/>
<path d="M212.5 188L296 118" stroke="black"/>
<path d="M232 214.5L299.5 135" stroke="black"/>
<path d="M226 240L296.5 183" stroke="black"/>
</g>
<defs>
<clipPath id="clip0_2_3">
<rect width="300" height="300" fill="white"/>
</clipPath>
</defs>
</svg>
