<svg width="300" height="300" viewBox="0 0 300 300" fill="none" xmlns="http://www.w3.org/2000/svg">
<g clip-path="url(#clip0_22_21)">
<path d="M144.693 2.69063C78.1402 4.80882 21.0892 49.7499 4.5816 113.061C-2.16679 139.243 6.65757 192.611 6.65757 192.611C6.65757 192.611 30.9587 175.284 45.3968 175.889C70.5511 176.939 83.6509 199.52 73.1556 224.293C67.4117 237.853 56.1248 248.073 43.5839 253.276C62.6133 272.285 86.5165 285.892 112.754 292.65C193.048 313.044 274.796 265.7 295.341 186.904C301.235 164.237 301.541 140.503 296.234 117.666C265.584 139.004 230.04 152.295 202.209 152.381C162.992 152.498 146.887 126.045 163.713 90.2479C174.673 66.9275 198.297 42.3311 226.871 23.6701C214.497 16.3752 201.123 10.8662 187.159 7.31309C173.295 3.79217 158.995 2.23598 144.693 2.69063ZM110.91 36.4465C132.703 40.3307 141.225 63.6147 128.424 93.8291C114.137 127.555 79.9484 152.75 53.4382 152.83C29.3708 152.902 17.4031 132.008 25.3173 104.285C33.8972 74.2277 63.606 43.3119 93.8023 37.0113C100.42 35.631 106.137 35.5956 110.91 36.4465ZM178.554 181.721C183.952 181.531 191.763 181.758 199.787 183.628C230.609 190.802 242.138 216.556 223.204 243.643C203.672 271.589 160.993 286.42 129.378 279.795C100.786 273.801 87.9523 251.426 99.132 227.644C110.528 203.395 144.195 182.923 178.554 181.721Z" fill="white"/>
<path d="M227 24C105.5 -29.5 -12 48 6.99997 192.5" stroke="black"/>
<path d="M8 192.5C8 50 82 -7.5 226 24" stroke="black"/>
<path d="M227 24C153 24 83 19.5 41.5 72.5" stroke="black"/>
<path d="M7.5 192C10.8421 169.7 19.0684 123.5 25 103.988M41.5 72.5C34.559 81.5234 29.2079 92.3681 25 103.988M25 103.988C18.8913 129 26.5 138 28 141" stroke="black"/>
<path d="M8 191.5L28 140.5" stroke="black"/>
<path d="M8 192.5L38.5 149.5" stroke="black"/>
<path d="M7.5 192.5L53 153" stroke="black"/>
<path d="M8 192C57 153.5 72.5 165.5 118.5 124.5C164.5 83.5 149 58.5 226.5 24" stroke="black"/>
<path d="M227 24C167 28.5 139 33 121 40" stroke="black"/>
<path d="M227 24C210.5 29.5 159 38.5 133.5 57.5" stroke="black"/>
<path d="M226 23.5C140.5 55.5 131.5 87 129.5 91.5C127.5 96 105.5 147.5 53 153" stroke="black"/>
<path d="M227 24.5C195 41.5 149.5 86 139.5 120.5C137.906 126 101 156 54.5 177.5" stroke="black"/>
<path d="M72.5 192.5L157.5 116" stroke="black"/>
<path d="M76.5 209L164 138.5" stroke="black"/>
<path d="M222 279.5C287.5 212 296 169 296 118" stroke="black"/>
<path d="M187.5 292.5C255 239 260 219 295.5 118.5" stroke="black"/>
<path d="M44.5 253.5C106.108 225.439 109.5 176.5 175.5 146.5" stroke="black"/>
<path d="M44.5 253.5C76.3338 241.515 88.9844 234.391 103.5 221" stroke="black"/>
<path d="M45 253.5L96 241.5" stroke="black"/>
<path d="M133 296C159 286.5 162.5 280.5 183 273.5" stroke="black"/>
<path d="M294.5 118.5C294.5 118.5 267 181.5 246.5 203.5C226 225.5 235 252 183 273.5" stroke="black"/>
<path d="M295.5 119L224.5 197.5" stroke="black"/>
<path d="M295 119L201.5 184" stroke="black"/>
<path d="M230 148C187.5 175 187.5 181.5 187.5 181.5C174.5 182.5 159.5 181.5 136.5 192.5" stroke="black"/>
<path d="M191 151.5C169.716 167.511 157.784 176.489 136.5 192.5C136.5 192.5 112.5 205 103.5 221" stroke="black"/>
<path d="M28 141C32.5 146.5 34.5 147.5 38.5 150" stroke="black"/>
<path d="M38.5 150C43.5 152.5 53 153 53 153" stroke="black"/>
<path d="M133.5 57.5C134.5 69.5 135 77.5 129.5 91.5" stroke="black"/>
<path d="M121 40C121 40 131 47 133.5 58" stroke="black"/>
<path d="M121 40C108.5 31 88 38 84 39.5" stroke="black"/>
<path d="M296 118C229 164.5 179 150.5 175 146.5" stroke="black"/>
<path d="M226.5 24.5C148 75 145 134 175 146.5" stroke="black"/>
<path d="M296 118C307 154 298 226.7 239 269C180 311.3 92 305 44.5 253.5" stroke="black"/>
<path d="M6.99995 192.5C-4.50001 125.5 3 85.5 45.5 43.5C87.9999 1.49999 164 -12.5 227 24" stroke="black"/>
<path d="M7.5 192C10.5 192 31.5 171 55 177.5" stroke="black"/>
<path d="M55 177.5C63.5 181 67.5 182 73 192" stroke="black"/>
<path d="M44 253.5C75.5 236.5 76.5 214 76.5 209" stroke="black"/>
<path d="M73 192C76.5 198 76.5 202.5 76.5 209" stroke="black"/>
<path d="M103.5 221C97 229.5 96 238 95.5 241.5" stroke="black"/>
<path d="M114.5 293C125.294 286.155 133 281.5 141.5 281.5C150 281.5 158.243 281.314 171.5 278" stroke="black"/>
<path d="M187.5 181.5C195 182 198 183 202 184" stroke="black"/>
<path d="M202 184C214.5 187.5 218.5 191 225 197.5" stroke="black"/>
<path d="M224.5 197C237.5 212 232 227.5 229 234" stroke="black"/>
<path d="M86 283.5L106.5 269.5C106.5 269.5 99.5 263 96.5 253.5" stroke="black"/>
<path d="M45 253.5H97" stroke="black"/>
<path d="M202 264C188.5 281.5 168.5 296 168.5 296" stroke="black"/>
<path d="M106.5 269.5C118.5 278 133.5 281.5 140.5 281.5" stroke="black"/>
<path d="M95.5 241.5C95 246.5 95.5 250 96.5 253.5" stroke="black"/>
</g>
<defs>
<clipPath id="clip0_22_21">
<rect width="300" height="300" fill="white"/>
</clipPath>
</defs>
</svg>
