<?xml version="1.0" encoding="UTF-8" standalone="no"?>
<svg
   xml:space="preserve"
   version="1.1"
   viewBox="0 0 300 300"
   id="svg1"
   width="300"
   height="300"
   xmlns="http://www.w3.org/2000/svg"
   xmlns:svg="http://www.w3.org/2000/svg"><defs
     id="defs1" /><path
     d="M 144.69336,2.6907171 C 78.14031,4.8089062 21.089285,49.749918 4.5817366,113.06136 c -6.748379,26.182 -6.0302059,53.70184 2.0759746,79.54975 10.0828058,-10.48651 24.3011568,-17.32674 38.7392338,-16.72264 25.154278,1.05058 38.254075,23.63143 27.758769,48.40426 -5.743942,13.55976 -17.030845,23.78026 -29.571658,28.98339 19.02933,19.00913 42.932548,32.61552 69.170454,39.3738 80.2933,20.39441 162.04156,-26.9504 182.58681,-105.74583 5.89364,-22.66705 6.19975,-46.40152 0.89297,-69.23785 -30.65038,21.33807 -66.19391,34.62888 -94.02534,34.71443 -39.21736,0.11719 -55.32184,-26.33612 -38.49607,-62.132776 C 174.67284,66.927595 198.29665,42.331123 226.87105,23.670197 214.49726,16.375239 201.12255,10.8663 187.15916,7.3131753 173.29544,3.7922604 158.99555,2.2354803 144.69395,2.6901312 Z M 110.91057,36.446556 c 21.79217,3.884178 30.31463,27.16815 17.51366,57.382585 C 114.13733,127.55451 79.948483,152.75039 53.438347,152.8295 29.370979,152.9016 17.403212,132.00822 25.317465,104.2846 33.897343,74.227786 63.60611,43.311982 93.802381,37.0114 100.42056,35.631033 106.13673,35.595675 110.91057,36.446556 Z m 67.64351,145.274334 c 5.39839,-0.19009 13.20932,0.0368 21.23319,1.90663 30.82147,7.17422 42.35037,32.9285 23.41698,60.0152 -19.53221,27.94628 -62.21129,42.77752 -93.82611,36.15233 -28.59198,-5.99414 -41.425756,-28.36874 -30.246075,-52.15134 11.396475,-24.24901 45.063255,-44.72107 79.422015,-45.92282 z"
     fill="#ffffff"
     fill-opacity="1"
     id="path1"
     style="stroke-width:0.585937" /></svg>
