<?xml version="1.0" encoding="UTF-8" standalone="no"?>
<!-- Created with Inkscape (http://www.inkscape.org/) -->

<svg
   width="302.17154"
   height="296.77319"
   viewBox="0 0 302.17154 296.77319"
   version="1.1"
   id="svg1"
   sodipodi:docname="me_brandind1.svg"
   inkscape:version="1.3 (0e150ed6c4, 2023-07-21)"
   xml:space="preserve"
   inkscape:export-filename="me_brandind1.svg"
   inkscape:export-xdpi="120.5"
   inkscape:export-ydpi="120.5"
   xmlns:inkscape="http://www.inkscape.org/namespaces/inkscape"
   xmlns:sodipodi="http://sodipodi.sourceforge.net/DTD/sodipodi-0.dtd"
   xmlns="http://www.w3.org/2000/svg"
   xmlns:svg="http://www.w3.org/2000/svg"><sodipodi:namedview
     id="namedview1"
     pagecolor="#505050"
     bordercolor="#eeeeee"
     borderopacity="1"
     inkscape:showpageshadow="0"
     inkscape:pageopacity="0"
     inkscape:pagecheckerboard="0"
     inkscape:deskcolor="#d1d1d1"
     inkscape:document-units="px"
     inkscape:zoom="0.56041666"
     inkscape:cx="2903.1971"
     inkscape:cy="1537.2491"
     inkscape:window-width="1920"
     inkscape:window-height="1017"
     inkscape:window-x="-8"
     inkscape:window-y="-8"
     inkscape:window-maximized="1"
     inkscape:current-layer="layer1"><inkscape:page
       x="5.2656169e-06"
       y="1.6326427e-05"
       width="302.17154"
       height="296.77319"
       id="page1"
       margin="0"
       bleed="0" /></sodipodi:namedview><defs
     id="defs1" /><g
     inkscape:label="Ebene 1"
     inkscape:groupmode="layer"
     id="layer1"
     transform="translate(364.79785,-1442.3058)"><path
       id="path181"
       style="fill:#ffffff;fill-opacity:1;stroke:none;stroke-width:0.619843;stroke-linecap:round;stroke-linejoin:round;stroke-opacity:1"
       d="m -187.10836,1444.6274 a 148.38518,151.13197 89.992519 0 0 -175.39726,119.9148 148.38518,151.13197 89.992519 0 0 8.06423,79.7282 c 9.33746,-11.2889 23.10192,-19.2252 37.64638,-19.7046 25.33883,-0.8346 40.19038,20.8557 31.51235,46.5216 -4.74876,14.0483 -15.31467,25.16 -27.51752,31.3282 a 148.38518,151.13197 89.992519 0 0 72.42124,34.3403 148.38518,151.13197 89.992519 0 0 175.40542,-119.9134 148.38518,151.13197 89.992519 0 0 -4.30685,-69.5962 c -29.17565,23.7317 -63.86906,39.7505 -91.81058,41.9276 -39.37415,3.0662 -57.53465,-22.289 -43.32867,-59.5 9.25396,-24.2419 31.12786,-50.7192 58.42055,-71.6057 a 148.38518,151.13197 89.992519 0 0 -41.10929,-13.4408 z m -74.37915,34.9871 c 22.17612,2.2626 32.48419,25.0033 21.90037,56.3071 -11.81224,34.9411 -44.25081,62.8121 -70.86697,64.8841 -24.16294,1.8814 -37.75103,-18.2004 -31.88707,-46.6357 6.35722,-30.828 33.86577,-64.1072 63.71591,-72.703 6.27005,-1.8056 12.02038,-2.3746 17.13776,-1.8525 z m 100.31266,141.1198 c 31.49036,4.8872 45.00351,29.884 28.02624,58.5073 -17.5137,29.5317 -59.25837,47.6331 -91.50307,43.356 -29.16343,-3.8703 -43.7315,-25.3743 -34.29303,-50.0973 10.26368,-26.8878 46.29426,-51.3644 83.20912,-52.5802 5.19599,-0.171 10.06205,0.1139 14.56074,0.8142 z" /></g></svg>
