<svg width="300" height="300" viewBox="0 0 300 300" fill="none" xmlns="http://www.w3.org/2000/svg">
<g clip-path="url(#clip0_13_29)">
<path d="M144.693 2.69063C78.1403 4.80882 21.0892 49.7499 4.58166 113.061C-2.16672 139.243 6.65763 192.611 6.65763 192.611C6.65763 192.611 30.9588 175.284 45.3969 175.889C70.5512 176.939 83.651 199.52 73.1557 224.293C67.4117 237.853 56.1248 248.073 43.584 253.276C62.6133 272.285 86.5166 285.892 112.755 292.65C193.048 313.044 274.796 265.7 295.341 186.904C301.235 164.237 301.541 140.503 296.234 117.666C265.584 139.004 230.04 152.295 202.209 152.381C162.992 152.498 146.887 126.045 163.713 90.2479C174.673 66.9275 198.297 42.3311 226.871 23.6701C214.497 16.3752 201.123 10.8662 187.159 7.31309C173.295 3.79217 158.995 2.23598 144.693 2.69063ZM110.911 36.4465C132.703 40.3307 141.225 63.6147 128.424 93.8291C114.137 127.555 79.9484 152.75 53.4383 152.83C29.3709 152.902 17.4031 132.008 25.3174 104.285C33.8973 74.2277 63.6061 43.3119 93.8024 37.0113C100.421 35.631 106.137 35.5956 110.911 36.4465ZM178.554 181.721C183.952 181.531 191.763 181.758 199.787 183.628C230.609 190.802 242.138 216.556 223.204 243.643C203.672 271.589 160.993 286.42 129.378 279.795C100.786 273.801 87.9523 251.426 99.132 227.644C110.529 203.395 144.195 182.923 178.554 181.721Z" fill="white"/>
<path d="M227 24C105.5 -29.5 -11.9999 48 7.00003 192.5" stroke="black"/>
<path d="M8 192.5C8 50 82 -7.5 226 24" stroke="black"/>
<path d="M227 24C153 24 110 20 70 46.5" stroke="black"/>
<path d="M7.5 192C12.1266 161.129 17 124 23.5 117.5" stroke="black"/>
<path d="M8 191.5L28 140.5" stroke="black"/>
<path d="M8 192.5L38.5 150" stroke="black"/>
<path d="M7.5 192.5L53 153" stroke="black"/>
<path d="M8 192C57 153.5 72.5 165.5 118.5 124.5C164.5 83.5 149 58.5 226.5 24" stroke="black"/>
<path d="M227 24C167 28.5 139 33 121 40" stroke="black"/>
<path d="M227 24C210.5 29.5 159.5 38.5 134 57.5" stroke="black"/>
<path d="M226 23.5C196 41 159.5 45 130 92" stroke="black"/>
<path d="M227 24.5C195 41.5 149.5 86 139.5 120.5C133.703 140.5 101 156 54.5 177.5" stroke="black"/>
<path d="M72.5 192.5L157.5 116" stroke="black"/>
<path d="M76.5 209L164 138.5" stroke="black"/>
<path d="M44 254C227 367.5 305.5 192 296 118" stroke="black"/>
<path d="M44.5 253.5C196.565 329.529 251.5 263 295.5 118.5" stroke="black"/>
<path d="M44.5 253.5C106.108 225.439 109 177 175 147" stroke="black"/>
<path d="M44.5 253.5C76.3338 241.515 88.9844 234.391 103.5 221" stroke="black"/>
<path d="M45 253.5L96 241.5" stroke="black"/>
<path d="M43.5 253.5C65.5 258.5 57.5 258.5 101.5 262.5" stroke="black"/>
<path d="M294.5 118.5L231.5 224" stroke="black"/>
<path d="M295.5 119L225 197" stroke="black"/>
<path d="M295 119L202 183" stroke="black"/>
<path d="M230 148L174 182.5" stroke="black"/>
<path d="M191 151.5L136 192.5" stroke="black"/>
<path d="M300 -0.5L227 24" stroke="black"/>
<path d="M300.5 43.5L227 25" stroke="black"/>
<path d="M300 30L226.5 23.5" stroke="black"/>
<path d="M300.5 15L228.5 24.5" stroke="black"/>
<path d="M300.5 52L295.5 119" stroke="black"/>
<path d="M7.5 192L0 255" stroke="black"/>
<path d="M-0.5 209L8 191.5" stroke="black"/>
<path d="M0 282L44.5 254.5" stroke="black"/>
<path d="M4 299L43.5 255" stroke="black"/>
<path d="M33.5 301.5L44 255" stroke="black"/>
<path d="M0 261L45 255.5" stroke="black"/>
</g>
<defs>
<clipPath id="clip0_13_29">
<rect width="300" height="300" fill="white"/>
</clipPath>
</defs>
</svg>
