<?xml version="1.0" encoding="UTF-8" standalone="no"?>
<svg
   xml:space="preserve"
   version="1.1"
   viewBox="0 0 512 512"
   id="svg1"
   width="512"
   height="512"
   xmlns="http://www.w3.org/2000/svg"
   xmlns:svg="http://www.w3.org/2000/svg"><defs
     id="defs1" /><path
     d="M 246.94334,4.592006 C 133.35939,8.2070509 35.992248,84.906424 7.8193481,192.95801 c -11.5172404,44.68398 -10.2915575,91.65121 3.5429989,135.765 17.208,-17.897 41.474,-29.571 66.115,-28.54 42.929993,1.793 65.286993,40.331 47.374993,82.61 -9.803,23.142 -29.065993,40.585 -50.468993,49.465 32.476743,32.44227 73.271593,55.66386 118.050993,67.198 137.03398,34.80648 276.55109,-45.99538 311.615,-180.473 10.05849,-38.68512 10.58091,-79.19197 1.524,-118.166 -52.31,36.417 -112.971,59.1 -160.47,59.246 -66.931,0.2 -94.416,-44.947 -65.7,-106.04 18.705,-39.8 59.023,-81.778004 107.79,-113.626004 -21.11794,-12.450069 -43.94413,-21.851998 -67.775,-27.916 -23.66076,-6.0090317 -48.06591,-8.665938 -72.474,-7.89 z m -57.656,57.61 c 37.192,6.629 51.737,46.367004 29.89,97.933004 -24.383,57.558 -82.732,100.559 -127.975993,100.694 -41.075,0.123 -61.5,-35.535 -47.993,-82.85 14.643,-51.297 65.345993,-104.060004 116.880993,-114.813004 11.29504,-2.355828 21.05065,-2.416172 29.198,-0.964 z m 115.445,247.935004 c 9.21325,-0.32442 22.54392,0.0628 36.238,3.254 52.602,12.244 72.278,56.198 39.965,102.426 -33.335,47.695 -106.174,73.007 -160.13,61.7 -48.797,-10.23 -70.7,-48.416 -51.62,-89.005 19.45,-41.385 76.908,-76.324 135.547,-78.375 z"
     fill="#ffffff"
     fill-opacity="1"
     id="path1" /></svg>
