<?xml version="1.0" encoding="UTF-8" standalone="no"?>
<!-- Created with Inkscape (http://www.inkscape.org/) -->

<svg
   width="321.67819"
   height="321.78662"
   viewBox="0 0 321.67819 321.78662"
   version="1.1"
   id="svg1"
   sodipodi:docname="me_brandind1.svg"
   inkscape:version="1.3 (0e150ed6c4, 2023-07-21)"
   xml:space="preserve"
   inkscape:export-filename="me_brandind1.svg"
   inkscape:export-xdpi="120.5"
   inkscape:export-ydpi="120.5"
   xmlns:inkscape="http://www.inkscape.org/namespaces/inkscape"
   xmlns:sodipodi="http://sodipodi.sourceforge.net/DTD/sodipodi-0.dtd"
   xmlns="http://www.w3.org/2000/svg"
   xmlns:svg="http://www.w3.org/2000/svg"><sodipodi:namedview
     id="namedview1"
     pagecolor="#505050"
     bordercolor="#eeeeee"
     borderopacity="1"
     inkscape:showpageshadow="0"
     inkscape:pageopacity="0"
     inkscape:pagecheckerboard="0"
     inkscape:deskcolor="#d1d1d1"
     inkscape:document-units="px"
     inkscape:zoom="0.50000001"
     inkscape:cx="2569.9999"
     inkscape:cy="370.99999"
     inkscape:window-width="1920"
     inkscape:window-height="1017"
     inkscape:window-x="-7"
     inkscape:window-y="-8"
     inkscape:window-maximized="1"
     inkscape:current-layer="layer1"><inkscape:page
       x="-1.2297996e-05"
       y="2.0410341e-06"
       width="321.67819"
       height="321.78662"
       id="page1"
       margin="0"
       bleed="0" /></sodipodi:namedview><defs
     id="defs1" /><g
     inkscape:label="Ebene 1"
     inkscape:groupmode="layer"
     id="layer1"
     transform="translate(-80.255249,-600.4823)"><path
       id="path24"
       style="fill:#ffffff;fill-opacity:1;stroke:none;stroke-width:0.276105;stroke-linecap:round;stroke-linejoin:round"
       sodipodi:type="inkscape:offset"
       inkscape:radius="0"
       inkscape:original="M 979.38672 818.10156 A 71.66851 71.66851 0 0 0 907.71875 889.76953 A 71.66851 71.66851 0 0 0 920.09375 929.84961 C 927.0352 918.25751 937.09162 908.71648 946.48828 905.88086 C 953.04168 903.90377 958.34279 905.56039 961.24609 910.50586 C 964.14558 915.44483 964.41393 923.26613 961.98242 932.17578 C 959.82452 940.08371 955.70131 948.23146 950.36719 955.24414 A 71.66851 71.66851 0 0 0 979.38672 961.43945 A 71.66851 71.66851 0 0 0 1051.0547 889.76953 A 71.66851 71.66851 0 0 0 1037.7773 848.25 C 1030.8734 859.57511 1021.4086 868.55221 1012.6367 871.12695 C 1006.265 872.99733 1001.0776 871.22025 998.23828 866.20898 C 995.39525 861.19107 995.13822 853.34875 997.50977 844.33008 C 999.39246 837.16968 1002.7289 829.97941 1006.8789 823.58594 A 71.66851 71.66851 0 0 0 979.38672 818.10156 z M 973.03711 821.7832 C 977.45452 821.51493 981.07734 823.22883 983.36133 826.8418 C 986.40879 831.6625 986.78936 839.4241 984.42773 848.40625 C 982.06983 857.37523 977.18478 866.78039 970.89258 874.50391 C 964.59485 882.23421 957.39081 887.66548 950.83203 889.66992 C 944.28023 891.67169 938.89742 890.09039 935.92383 885.27148 C 932.94316 880.44112 932.63609 872.78247 935.03906 863.91992 C 937.43555 855.08028 942.33182 845.77023 948.54492 838.08008 C 954.76274 830.38409 961.86192 824.84821 968.375 822.71484 C 970.00382 822.18145 971.56464 821.87263 973.03711 821.7832 z M 1012.7324 886.95703 C 1016.9861 886.93993 1020.377 888.9455 1022.4531 892.79883 C 1025.2145 897.92405 1025.4345 905.93119 1023.0352 914.99414 C 1020.6301 924.08016 1015.7861 933.49139 1009.4668 941.19727 C 1003.1521 948.89757 995.95075 954.17556 989.53906 955.89062 C 976.24212 959.44781 969.89914 947.03903 974.95898 928.49609 C 980.03197 909.90299 994.92024 891.50033 1008.207 887.6543 C 1009.8001 887.19312 1011.3144 886.96271 1012.7324 886.95703 z "
       d="m 979.38672,818.10156 a 71.66851,71.66851 0 0 0 -71.66797,71.66797 71.66851,71.66851 0 0 0 12.375,40.08008 c 6.94145,-11.5921 16.99787,-21.13313 26.39453,-23.96875 6.5534,-1.97709 11.85451,-0.32047 14.75781,4.625 2.89949,4.93897 3.16784,12.76027 0.73633,21.66992 -2.1579,7.90793 -6.28111,16.05568 -11.61523,23.06836 a 71.66851,71.66851 0 0 0 29.01953,6.19531 71.66851,71.66851 0 0 0 71.66798,-71.66992 71.66851,71.66851 0 0 0 -13.2774,-41.51953 c -6.9039,11.32511 -16.3687,20.30221 -25.1406,22.87695 -6.3717,1.87038 -11.5591,0.0933 -14.39842,-4.91797 -2.84303,-5.01791 -3.10006,-12.86023 -0.72851,-21.8789 1.88269,-7.1604 5.21913,-14.35067 9.36913,-20.74414 a 71.66851,71.66851 0 0 0 -27.49218,-5.48438 z m -6.34961,3.68164 c 4.41741,-0.26827 8.04023,1.44563 10.32422,5.0586 3.04746,4.8207 3.42803,12.5823 1.0664,21.56445 -2.3579,8.96898 -7.24295,18.37414 -13.53515,26.09766 -6.29773,7.7303 -13.50177,13.16157 -20.06055,15.16601 -6.5518,2.00177 -11.93461,0.42047 -14.9082,-4.39844 -2.98067,-4.83036 -3.28774,-12.48901 -0.88477,-21.35156 2.39649,-8.83964 7.29276,-18.14969 13.50586,-25.83984 6.21782,-7.69599 13.317,-13.23187 19.83008,-15.36524 1.62882,-0.53339 3.18964,-0.84221 4.66211,-0.93164 z m 39.69529,65.17383 c 4.2537,-0.0171 7.6446,1.98847 9.7207,5.8418 2.7614,5.12522 2.9814,13.13236 0.5821,22.19531 -2.4051,9.08602 -7.2491,18.49725 -13.5684,26.20313 -6.3147,7.7003 -13.51605,12.97829 -19.92774,14.69335 -13.29694,3.55719 -19.63992,-8.85159 -14.58008,-27.39453 5.07299,-18.5931 19.96126,-36.99576 33.24802,-40.84179 1.5931,-0.46118 3.1074,-0.69159 4.5254,-0.69727 z"
       transform="matrix(2.1902025,0.49278644,-0.49278644,2.1902025,-1465.5292,-1670.0305)"
       inkscape:export-filename="meLogoPlain.svg"
       inkscape:export-xdpi="120.5"
       inkscape:export-ydpi="120.5" /></g></svg>
