<svg width="298" height="296" viewBox="0 0 298 296" fill="none" xmlns="http://www.w3.org/2000/svg">
<path d="M142.693 0.690628C76.1403 2.80882 19.0892 47.7499 2.58166 111.061C-4.16672 137.243 4.65763 190.611 4.65763 190.611C4.65763 190.611 28.9588 173.284 43.3969 173.889C68.5512 174.939 81.651 197.52 71.1557 222.293C65.4117 235.853 54.1248 246.073 41.584 251.276C60.6133 270.285 84.5166 283.892 110.755 290.65C191.048 311.044 272.796 263.7 293.341 184.904C299.235 162.237 299.541 138.503 294.234 115.666C263.584 137.004 228.04 150.295 200.209 150.381C160.992 150.498 144.887 124.045 161.713 88.2479C172.673 64.9275 196.297 40.3311 224.871 21.6701C212.497 14.3752 199.123 8.86622 185.159 5.31309C171.295 1.79217 156.995 0.235977 142.693 0.690628ZM108.911 34.4465C130.703 38.3307 139.225 61.6147 126.424 91.8291C112.137 125.555 77.9484 150.75 51.4383 150.83C27.3709 150.902 15.4031 130.008 23.3174 102.285C31.8973 72.2277 61.6061 41.3119 91.8024 35.0113C98.4205 33.631 104.137 33.5956 108.911 34.4465ZM176.554 179.721C181.952 179.531 189.763 179.758 197.787 181.628C228.609 188.802 240.138 214.556 221.204 241.643C201.672 269.589 158.993 284.42 127.378 277.795C98.7861 271.801 85.9523 249.426 97.132 225.644C108.529 201.395 142.195 180.923 176.554 179.721Z" fill="white"/>
</svg>
